<svg width="122" height="40" viewBox="0 0 122 40" fill="none" xmlns="http://www.w3.org/2000/svg">
<path d="M38.8622 26.6404C38.2867 28.4189 37.4194 30.0471 36.3352 31.5667C33.9332 34.9317 30.789 37.328 26.9275 38.7976C26.7607 38.8644 26.5856 38.8978 26.4104 38.9479C24.2253 39.3821 22.1403 38.9729 20.1303 38.1046C19.5549 37.8541 19.0378 37.495 18.554 37.0942C17.0445 35.8418 15.6517 34.4724 14.6592 32.7524C13.942 31.4999 13.3665 30.1723 12.8911 28.803C12.1655 26.7155 11.5984 24.578 10.9228 22.4822C10.5809 21.4218 10.0555 20.4532 9.41329 19.5264C8.59596 18.3407 7.23652 18.5328 6.33579 19.159C5.5268 19.7268 5.03473 20.5534 4.54267 21.3717C4.16736 22.0063 3.90882 22.6993 3.70032 23.4675C4.16736 22.8579 4.62607 22.3236 5.07643 21.7725C5.9855 20.6703 7.47004 20.7789 8.21231 21.9896C8.67102 22.7327 8.97126 23.5343 9.25483 24.3442C10.1055 26.799 10.8228 29.2956 11.8069 31.7003C12.7076 33.9213 14.1004 35.7666 15.9102 37.328C16.9778 38.2465 18.087 39.0898 19.3464 39.7244C19.4464 39.7745 19.5882 39.8163 19.5715 39.9832C17.7367 39.9916 15.9519 39.6743 14.2005 39.1566C14.1004 39.1232 14.017 39.0481 13.9253 38.9896C13.1663 38.4469 12.4824 37.8207 11.882 37.1109C10.1556 35.0736 9.01296 32.7357 8.31239 30.1723C8.01215 29.0785 7.66187 27.993 7.2532 26.9326C7.07806 26.4901 6.85288 26.0809 6.56097 25.7052C6.15231 25.1708 5.4851 24.9788 4.84291 25.1959C4.1757 25.413 3.70866 26.0141 3.70032 26.6738C3.69198 27.6173 3.82542 28.5525 3.95052 29.5461C4.12566 29.2872 4.2591 29.0618 4.40922 28.8531C4.83457 28.2686 5.49344 28.2936 5.8604 28.9198C6.23571 29.5544 6.46923 30.2558 6.71943 30.9488C7.53676 33.1782 8.6043 35.274 10.1722 37.0775C10.2807 37.2028 10.4141 37.3197 10.3307 37.5117C8.8545 36.7853 7.57846 35.775 6.36915 34.6728C5.62688 33.9881 4.91797 33.2701 4.33416 32.4434C3.80874 30.857 3.45011 29.2371 3.23327 27.5755C3.04979 26.1644 3.00809 24.7533 3.07481 23.3339C3.24995 19.8437 4.134 16.5706 6.19401 13.6816C7.42 11.9615 8.97126 10.684 11.0396 10.0912C13.7418 9.31466 15.9186 10.2415 17.6533 12.2538C18.2121 12.8967 18.5957 13.6482 18.9293 14.4414C19.8551 16.6457 20.5557 18.9336 21.4064 21.1629C21.9818 22.6575 22.6741 24.102 23.8417 25.2376C26.0184 27.3668 28.6372 27.5922 31.2227 26.1978C33.4912 24.9704 34.9257 22.9748 35.9598 20.6703C36.8439 18.6914 37.3693 16.6123 37.6028 14.4581C37.7029 13.4895 37.7196 12.521 37.7113 11.5524C37.7113 11.3687 37.6612 11.16 37.8364 11.0097C38.1867 11.6359 38.5119 12.2705 38.6704 12.9802C38.8705 13.5981 38.7204 14.2327 38.6537 14.8422C38.4285 17.0215 38.0032 19.1507 37.2025 21.1963C36.4269 23.1752 35.351 24.9454 33.8415 26.4567C33.1826 27.1163 32.5321 27.7759 31.7314 28.2769C29.1126 29.8968 26.4605 29.9218 23.8167 28.4105C22.5156 27.6674 21.5815 26.5235 20.8476 25.2126C20.1387 23.9267 19.6966 22.5323 19.2046 21.1629C18.6708 19.685 18.2455 18.1737 17.7117 16.6958C17.2446 15.4016 16.6775 14.1659 15.685 13.1889C14.4257 11.9448 12.9245 11.3603 11.1313 11.7695C9.47167 12.1452 8.17895 13.072 7.09474 14.3412C5.79368 15.8525 5.01805 17.6477 4.35918 19.5013C4.35084 19.5264 4.35918 19.5598 4.36752 19.5848C4.35918 19.6433 4.4259 19.5848 4.37586 19.5932C4.35918 19.5932 4.35918 19.5848 4.35918 19.5514C4.37586 19.3844 4.45092 19.2258 4.51765 19.0839C5.41004 17.1384 6.46923 15.3098 8.25401 14.0156C9.25483 13.2891 10.3807 12.8549 11.6318 12.8883C13.108 12.9301 14.1755 13.7233 15.0429 14.8505C15.5933 15.5603 15.8685 16.3869 16.1604 17.2135C16.7025 18.7582 17.1279 20.3447 17.6116 21.9144C18.2038 23.8432 18.8876 25.7386 20.0636 27.4085C21.3063 29.162 22.9076 30.4395 24.9509 31.1242C25.8016 31.4081 26.6773 31.4248 27.578 31.3663C29.0209 31.2661 30.3636 30.8737 31.598 30.1389C33.5412 28.9866 35.0174 27.3751 36.16 25.438C37.9031 22.4906 38.7955 19.2759 39.1958 15.9026C39.2292 15.6438 39.0957 15.3432 39.3376 15.1177C39.6712 16.0446 39.7796 17.0215 39.8797 17.99C39.9214 18.3825 40.0131 18.7833 39.9381 19.1841C39.9131 19.9522 39.7046 20.687 39.5127 21.4301C38.9456 23.5927 38.1199 25.6551 36.919 27.5421C35.5428 29.7131 33.8331 31.5751 31.623 32.9361C30.2969 33.746 28.8624 34.1718 27.2945 34.2637C25.7349 34.3555 24.2587 34.1551 22.8242 33.554C21.0894 32.8275 19.755 31.6335 18.6791 30.1222C17.2029 28.0348 16.2188 25.7219 15.5599 23.2587C15.1179 21.5971 14.7927 19.9021 14.2088 18.2739C13.9336 17.5141 13.5917 16.796 13.1246 16.128C12.0905 14.575 9.92203 14.2744 8.34575 15.2764C7.06972 16.0863 6.17733 17.2386 5.39336 18.5077C5.30162 18.658 5.20987 18.8167 5.11813 18.9753C5.82704 17.8898 6.71109 17.0048 7.87871 16.4203C9.43831 15.6438 10.8394 16.0446 11.7986 17.5225C12.4324 18.491 12.7827 19.5681 13.0663 20.6787C13.4916 22.3319 13.8752 24.0019 14.3673 25.6384C15.0512 27.9012 16.0103 30.0471 17.4949 31.9007C19.2296 34.0633 21.4314 35.5913 24.1753 36.1424C26.8024 36.6684 29.3128 36.1758 31.6397 34.8398C34.2334 33.3619 36.1183 31.1993 37.6279 28.6694C37.9531 28.1183 38.2284 27.5421 38.5203 26.9744C38.6037 26.8324 38.6454 26.6487 38.8622 26.6404Z" fill="#08FF0C"/>
<path d="M38.863 26.6403C38.3626 27.4669 37.979 28.3687 37.4619 29.187C35.8189 31.7587 33.8256 33.9714 31.0233 35.2823C27.5372 36.9105 24.0927 36.9105 20.7066 34.8481C17.871 33.1197 16.1696 30.5563 14.9519 27.5838C14.0762 25.4296 13.6092 23.1585 13.0254 20.9207C12.7251 19.7768 12.4082 18.6412 11.7493 17.6393C11.0821 16.6206 10.2231 15.9526 8.91371 16.1781C8.17144 16.3033 7.54593 16.6874 6.95378 17.1299C6.29492 17.6309 5.76115 18.2488 5.28576 18.9168C5.18568 19.0587 5.06892 19.2007 4.96884 19.3259C4.88544 19.3092 4.8771 19.2675 4.89378 19.2257C5.73613 17.5975 6.76196 16.1363 8.35492 15.1594C9.73938 14.3077 11.3323 14.3745 12.6 15.3431C13.2172 15.819 13.5925 16.487 13.9261 17.18C14.585 18.5577 14.9019 20.0357 15.2689 21.4969C15.8277 23.7179 16.4281 25.9222 17.5374 27.9512C18.4548 29.6295 19.5056 31.1993 21.0736 32.3682C22.3163 33.295 23.6924 33.8712 25.2186 34.0632C26.92 34.272 28.5964 34.1718 30.206 33.5121C32.0075 32.7774 33.4586 31.5666 34.768 30.1722C37.562 27.1914 39.0549 23.5759 39.8555 19.6349C39.8889 19.4762 39.9389 19.3092 39.9806 19.1506C40.0974 21.7223 39.6887 24.2105 38.863 26.6403Z" fill="#005000"/>
<path d="M3.57603 31.4251C3.08397 30.7237 2.60858 30.014 2.26663 29.2291C1.92469 28.3941 1.86631 27.5007 1.75789 26.624C1.59943 25.3131 1.53271 23.9938 1.58275 22.6745C1.68283 19.8523 2.26663 17.147 3.41757 14.5586C4.03474 13.1642 4.78535 11.8616 5.76948 10.6927C7.37078 8.80563 9.35573 7.48637 11.7744 6.95199C13.5341 6.55955 15.2605 6.86849 16.8952 7.58657C18.8384 8.44659 20.1645 9.98295 21.2487 11.7531C22.1745 13.256 22.6999 14.9343 23.3254 16.5625C23.9092 18.0738 24.4013 19.6352 25.2687 21.0213C25.9108 22.0567 26.7782 22.8248 27.9291 23.2507C29.1385 23.7016 30.2811 23.4845 31.3736 22.8916C32.6413 22.2153 33.5003 21.1298 34.2343 19.9358C35.4436 17.9486 36.0524 15.7777 36.311 13.4815C36.4277 12.4211 36.4861 11.3523 36.4694 10.2835C36.4611 9.9913 36.4527 9.69905 36.411 9.41516C36.3777 9.18972 36.3193 8.94758 36.5028 8.73883C36.778 9.07282 37.0365 9.42351 37.1783 9.841C37.4285 10.701 37.3535 11.5694 37.3034 12.4461C37.245 13.5399 37.1366 14.6337 36.9281 15.7109C36.4361 18.3076 35.4352 20.679 33.7672 22.7413C32.8415 23.8769 31.7072 24.7536 30.2811 25.2045C28.2544 25.8391 26.478 25.3966 24.9267 23.9771C24.1594 23.2841 23.659 22.4074 23.242 21.4722C22.408 19.5935 21.7491 17.648 21.0152 15.7276C20.6399 14.7423 20.2562 13.757 19.7058 12.8469C18.5966 11.0183 17.137 9.59886 15.0854 8.90583C13.4007 8.33805 11.741 8.57184 10.1397 9.28157C7.81281 10.3253 6.21151 12.1205 5.01887 14.3248C3.99304 16.2119 3.31749 18.2158 3.0089 20.3366C2.81708 21.6308 2.68364 22.925 2.72534 24.2359C2.8004 26.4737 3.07562 28.6864 3.66777 30.8573C3.71781 31.0493 3.82623 31.2497 3.68445 31.4585C3.65109 31.4752 3.60939 31.4668 3.57603 31.4251Z" fill="#08FF0C"/>
<path d="M39.3626 15.0846C39.104 18.9421 38.0866 22.5659 36.0182 25.8557C34.4669 28.3189 32.432 30.2393 29.5796 31.091C26.1352 32.118 23.2578 31.0994 20.8642 28.5193C19.1212 26.6406 18.2538 24.3194 17.5282 21.9313C16.9694 20.0777 16.444 18.2074 15.7684 16.3871C15.2013 14.8758 14.2505 13.7068 12.6909 13.1641C11.3815 12.7049 10.1472 13.0556 8.97958 13.6818C7.5284 14.4583 6.54427 15.7108 5.70192 17.0885C5.23487 17.8567 4.80953 18.6499 4.45924 19.4849C4.42588 19.5684 4.3675 19.6435 4.30078 19.7103C4.41754 19.0089 4.67609 18.3576 4.95965 17.7064C5.74362 15.8861 6.76111 14.2329 8.34573 12.9888C9.37157 12.1788 10.5142 11.6445 11.8236 11.5276C13.4249 11.394 14.7509 12.0202 15.8435 13.1474C17.2029 14.5502 17.7784 16.3621 18.3539 18.1573C19.0378 20.2781 19.6799 22.424 20.6224 24.453C21.5481 26.4652 22.9409 28.0934 25.0843 28.8783C27.7281 29.8469 30.1885 29.4211 32.3903 27.6593C35.326 25.313 37.044 22.2069 37.9281 18.5998C38.3785 16.7461 38.6203 14.8675 38.6954 12.9637C38.9873 13.6484 39.1791 14.3665 39.3626 15.0846Z" fill="#005000"/>
<path d="M3.70839 31.4333C3.3998 30.1725 3.08288 28.9034 2.90774 27.6092C2.60749 25.3714 2.54911 23.1421 2.83268 20.896C3.14126 18.4245 3.88353 16.1032 5.10952 13.949C6.44394 11.6111 8.22872 9.76578 10.8392 8.88906C13.483 7.99564 15.8266 8.58012 17.9032 10.4171C19.3628 11.7029 20.2385 13.3562 20.9307 15.1347C21.748 17.2304 22.4569 19.3596 23.3577 21.422C24.0999 23.1254 25.1925 24.4613 26.994 25.0959C28.7954 25.7305 30.4384 25.2796 31.9647 24.2609C33.2991 23.3759 34.2499 22.1317 35.0171 20.7457C36.2098 18.5915 36.8853 16.2786 37.1105 13.8321C37.2356 12.5045 37.294 11.1769 37.2023 9.84093C37.4691 10.2083 37.661 10.6091 37.8611 11.0099C37.8695 12.5379 37.8444 14.0659 37.5942 15.5772C37.1105 18.5163 36.1848 21.2884 34.3416 23.6764C33.1323 25.2378 31.6394 26.4569 29.6628 26.9662C27.1191 27.6175 25.0507 26.7909 23.3744 24.8621C22.2901 23.618 21.648 22.1234 21.0975 20.587C20.3469 18.4746 19.6463 16.3287 18.7539 14.2663C17.8365 12.1371 16.3353 10.6008 14.0251 10.0664C12.2487 9.65723 10.589 10.1749 9.06274 11.1017C7.46143 12.0703 6.36888 13.5148 5.45147 15.1096C4.11705 17.4308 3.4832 19.9441 3.26636 22.591C3.00782 25.7722 3.38312 28.87 4.29219 31.9176C4.34224 32.093 4.39228 32.26 4.35058 32.4437C4.11705 32.2182 3.93357 31.951 3.75843 31.6755C3.72507 31.6003 3.69171 31.5252 3.70839 31.4333Z" fill="#005000"/>
<path d="M36.5108 8.73028C36.5275 9.54855 36.6025 10.3668 36.5858 11.1851C36.5191 13.999 36.0854 16.7377 34.7427 19.2593C33.9921 20.6788 33.083 21.9813 31.6652 22.8497C29.3717 24.2524 27.1115 23.5678 25.5519 21.6139C24.6345 20.47 24.2008 19.0756 23.6587 17.7396C22.9831 16.053 22.466 14.3079 21.6404 12.6797C20.7813 11.0014 19.6721 9.53185 18.1459 8.40464C17.02 7.57801 15.7439 7.16888 14.3761 6.99353C10.8399 6.54265 8.14608 8.16249 5.95263 10.6758C3.62574 13.331 2.4748 16.579 1.94938 20.0358C1.49067 23.0584 1.66581 26.0643 2.2663 29.0535C2.27464 29.1036 2.27464 29.1621 2.27464 29.2205C1.44897 27.7677 0.931884 26.1896 0.531559 24.5781C0.506539 24.4695 0.489859 24.361 0.464838 24.2524C0.448158 23.5093 0.439818 22.7662 0.481518 22.0147C0.58994 20.2279 0.890184 18.4828 1.34889 16.7711C2.04946 14.1827 3.18371 11.7946 4.91012 9.7239C6.92842 7.31917 9.41377 5.69932 12.5914 5.34028C14.0092 5.18164 15.377 5.44048 16.7197 5.89971C18.5379 6.52595 19.914 7.77006 21.1566 9.17281C22.5995 10.801 23.4335 12.7799 24.2175 14.7755C24.8597 16.4204 25.5102 18.0569 26.3108 19.6267C26.7112 20.4116 27.2533 21.0879 28.0206 21.5137C29.5218 22.3404 30.9229 22.0899 32.3157 20.9209C33.7836 19.6935 34.6259 18.0903 35.168 16.3202C35.7935 14.2912 36.0854 12.2038 36.0521 10.0829C36.0437 9.5569 35.952 9.03087 35.9353 8.50483C35.9353 8.35454 35.8603 8.20424 36.0104 8.079C36.1855 8.29609 36.344 8.51318 36.5108 8.73028Z" fill="#005000"/>
<path d="M36.0188 8.07039C36.1106 9.08071 36.2107 10.091 36.1606 11.1013C36.0105 13.7649 35.5601 16.3617 34.2674 18.7497C33.6753 19.8352 32.8496 20.7035 31.8655 21.4133C30.1224 22.6741 27.9206 22.1731 26.6863 20.4113C25.8773 19.2507 25.3935 17.9314 24.8598 16.6372C24.0758 14.7418 23.4253 12.7796 22.3577 11.0179C21.04 8.84692 19.3303 7.05172 16.9283 6.1082C13.292 4.67205 9.97268 5.48197 6.99527 7.8366C4.32643 9.94908 2.71679 12.788 1.6993 15.9859C0.881966 18.5577 0.506662 21.2045 0.540022 23.9015C0.540022 24.0267 0.565042 24.152 0.464961 24.2522C0.38156 23.9098 0.281479 23.5675 0.281479 23.2085C0.189737 23.0331 0.298159 22.8244 0.198078 22.649V22.6323C0.0979963 22.4236 0.223098 22.1898 0.114676 21.9894C0.106336 21.9644 0.0979963 21.9393 0.0979963 21.9226C0.0979963 21.9143 0.106336 21.8976 0.114676 21.8892C0.0396155 21.622 0.0979963 21.3381 0.0729759 21.0709C0.0562957 20.8789 0.114676 20.6868 0.0312754 20.5032C-0.0104251 20.1191 -0.0104251 19.7433 0.0312754 19.3592C0.114676 19.2006 0.0562957 19.0336 0.0729759 18.8666C0.0896562 18.6245 0.0396155 18.374 0.106336 18.1318C0.0979963 17.873 0.081316 17.6058 0.189737 17.3553C0.298159 17.1883 0.181397 16.9796 0.273139 16.8126C0.439941 15.3597 0.890306 13.9904 1.39905 12.6294C1.48245 12.4123 1.52415 12.1785 1.6993 12.0115C1.96618 11.5606 2.1997 11.0846 2.45825 10.6254C3.8427 8.16224 5.86101 6.36705 8.313 5.04779C9.94766 4.17107 11.7158 3.66173 13.584 3.74523C16.4446 3.86212 18.9633 4.85574 21.0567 6.85968C22.708 8.44613 23.8756 10.3332 24.7847 12.4206C25.5854 14.2659 26.3026 16.1529 27.2117 17.9481C27.5036 18.5243 27.8622 19.0503 28.2876 19.5262C29.255 20.6033 30.7229 20.7787 31.9405 19.9771C33.0414 19.2507 33.7253 18.1986 34.2591 17.0464C35.1932 15.0508 35.5518 12.9299 35.5518 10.734C35.5518 9.72364 35.5518 8.71332 35.4184 7.70301C35.4017 7.59446 35.4017 7.47756 35.5101 7.40241C35.7269 7.59446 35.9188 7.8032 36.0188 8.07039Z" fill="#08FF0C"/>
<path d="M19.5796 39.9917C18.2535 39.2903 17.0358 38.4303 15.8849 37.4534C13.8332 35.7166 12.3737 33.5875 11.4313 31.0742C10.5806 28.8114 9.88835 26.4985 9.10438 24.219C8.8375 23.4592 8.53725 22.7161 8.11191 22.0231C7.41968 20.9126 6.08526 20.7873 5.21789 21.7893C4.68412 22.4072 4.17538 23.0501 3.61659 23.7264C3.61659 23.5761 3.59157 23.4509 3.61659 23.3507C4.12534 21.7225 4.8676 20.2279 6.20202 19.1174C7.07773 18.3909 8.28705 18.3241 9.03766 18.942C9.38794 19.2343 9.64649 19.6183 9.89669 20.0108C10.7807 21.4135 11.2228 22.9916 11.6898 24.5614C12.4571 27.1248 13.1577 29.7132 14.4337 32.0929C15.6931 34.4475 17.4862 36.3178 19.7297 37.7373C20.9056 38.4804 22.2484 38.781 23.6328 38.9313C24.5669 39.0315 25.4844 38.973 26.4101 38.9396C24.2 39.7245 21.9231 40.0585 19.5796 39.9917Z" fill="#005000"/>
<path d="M35.5182 7.40276C35.6683 8.73037 35.7184 10.058 35.6683 11.3939C35.5682 13.7235 35.0845 15.9529 33.8919 17.9902C33.3414 18.9254 32.6492 19.727 31.6818 20.253C30.5809 20.8542 29.0963 20.587 28.254 19.6602C27.3199 18.6332 26.7778 17.3807 26.2523 16.1282C25.4851 14.2996 24.7678 12.446 23.8254 10.7009C22.2908 7.8453 20.1557 5.59922 17.0115 4.4887C13.6755 3.31139 10.5146 3.78733 7.53714 5.60757C5.22693 7.01867 3.42547 8.92242 2.14943 11.3188C2.02433 11.5609 1.91591 11.8198 1.69073 12.0035C1.65737 11.8699 1.74911 11.7613 1.79915 11.6611C3.45049 8.10414 5.93584 5.27358 9.2135 3.13605C9.24686 3.111 9.28856 3.10265 9.32192 3.08595C9.41367 3.03585 9.52209 3.0108 9.61383 2.9607C11.015 2.45972 12.4328 2.25097 13.934 2.35952C15.3852 2.45972 16.753 2.76866 18.079 3.33644C19.8555 4.09627 21.365 5.23183 22.6578 6.65964C23.6753 7.78685 24.5676 9.01426 25.2348 10.3753C25.8937 11.7196 26.5025 13.0889 27.1114 14.4583C27.5451 15.4519 27.9454 16.4539 28.5042 17.3891C28.7377 17.7815 29.0129 18.1489 29.3215 18.4912C30.2639 19.5099 31.5233 19.5266 32.5575 18.5914C33.6917 17.556 34.3089 16.2451 34.7092 14.809C35.0762 13.4981 35.293 12.1621 35.3014 10.7844C35.3097 9.69059 35.2763 8.59678 35.1596 7.51131C35.1429 7.37771 35.1095 7.23577 35.2346 7.12722C35.3431 7.21072 35.4348 7.30257 35.5182 7.40276Z" fill="#005000"/>
<path d="M35.2599 7.11885C35.3767 8.07907 35.4684 9.04764 35.4601 10.0162C35.4267 12.7967 35.0848 15.502 33.4084 17.8399C33.0665 18.3242 32.6328 18.75 32.1074 19.0506C31.1232 19.6184 30.0557 19.4514 29.2884 18.6081C28.396 17.6228 27.8789 16.4288 27.3452 15.2348C26.4611 13.2643 25.6855 11.2353 24.5679 9.38163C23.1751 7.0771 21.3736 5.15666 18.9717 3.8708C17.4788 3.07757 15.8859 2.61834 14.1845 2.46804C12.5998 2.3261 11.0986 2.59329 9.59741 3.01077C9.56405 2.96903 9.57239 2.93563 9.60575 2.90223C10.9735 2.06725 12.3997 1.37423 13.9426 0.92334C15.8858 0.940039 17.6873 1.49112 19.372 2.40124C21.407 3.50341 23.1751 4.93956 24.5846 6.79321C25.3519 7.80352 25.9774 8.89734 26.5528 10.0246C27.4536 11.778 28.2876 13.5648 29.1299 15.3433C29.4552 16.028 29.8889 16.6292 30.4227 17.1636C31.0648 17.8065 31.6653 17.89 32.5661 17.3473C32.9163 17.1385 33.2083 16.8129 33.4334 16.4622C34.2591 15.1763 34.7095 13.7652 34.893 12.2539C35.1015 10.5339 35.0347 8.83054 34.8262 7.11885C34.8096 6.96855 34.7845 6.80991 34.9096 6.68466C35.0681 6.80156 35.1932 6.93515 35.2599 7.11885Z" fill="#08FF0C"/>
<path d="M34.9093 6.69307C34.9844 7.62824 35.0928 8.57176 35.1178 9.51528C35.1846 11.9785 34.9093 14.3665 33.5499 16.504C33.1579 17.1219 32.6492 17.6145 31.8819 17.7899C31.3898 17.8984 30.9728 17.8066 30.6058 17.4976C29.972 16.9632 29.4799 16.312 29.1213 15.5688C28.329 13.9323 27.5534 12.2957 26.7527 10.6675C25.6852 8.48826 24.4425 6.42588 22.591 4.80603C20.1557 2.68519 17.4118 1.25739 14.1425 1.01525C14.0757 1.0069 14.0174 0.973498 13.959 0.948448C14.9431 0.647858 15.9356 0.372316 16.9698 0.24707C17.5119 0.26377 18.0039 0.455814 18.4793 0.672907C19.9138 1.32419 21.2649 2.12576 22.4826 3.11938C23.9671 4.33844 25.2431 5.7746 26.3524 7.34435C27.4366 8.8807 28.2623 10.5673 29.1213 12.2289C29.6801 13.3061 30.2973 14.3331 31.0395 15.2933C31.7151 16.1617 32.6241 16.0615 33.258 15.3017C33.7501 14.7172 34.1003 14.0408 34.3005 13.281C34.7842 11.4608 34.8176 9.60713 34.6842 7.74514C34.6508 7.3193 34.4423 6.87676 34.6758 6.44258C34.7425 6.51772 34.8259 6.60122 34.9093 6.69307Z" fill="#005000"/>
<path d="M34.6592 6.43382C34.7926 7.76143 34.9094 9.08069 34.826 10.4166C34.7593 11.619 34.6175 12.8214 34.1671 13.9569C33.9002 14.6249 33.5416 15.2595 32.9495 15.7104C32.2822 16.2114 31.5733 16.1195 31.0396 15.4766C30.3557 14.65 29.7719 13.7649 29.2798 12.813C28.329 10.9761 27.445 9.10574 26.2523 7.41074C24.2757 4.59688 21.8154 2.35915 18.6962 0.881247C18.1291 0.614056 17.5203 0.48046 16.9531 0.238317C17.9039 0.0546231 18.8547 -0.0121748 19.8221 0.0128744C20.5394 0.221618 21.1399 0.664154 21.732 1.08999C22.9497 1.95836 24.1256 2.88518 25.1765 3.97065C26.4108 5.24816 27.4283 6.67597 28.3707 8.17057C29.2381 9.54828 30.0554 10.951 30.9478 12.3037C31.1396 12.5959 31.3398 12.8798 31.5817 13.1303C32.1988 13.7732 32.8911 13.6897 33.3831 12.9466C33.9753 12.0448 34.2088 11.0345 34.2255 9.98246C34.2505 8.7634 34.2922 7.53599 34.0837 6.32528C34.0587 6.17498 34.0503 6.01634 34.1588 5.89109C34.3589 6.03304 34.5341 6.20838 34.6592 6.43382Z" fill="#08FF0C"/>
<path d="M10.3484 37.512C10.0649 36.9943 9.63118 36.6019 9.29758 36.1259C8.02988 34.3808 7.14583 32.4437 6.43692 30.4231C6.27012 29.9388 6.08664 29.4545 5.82809 29.012C5.44445 28.3523 4.87732 28.3356 4.46032 28.9619C4.28517 29.2291 4.12671 29.4962 3.90987 29.8469C3.83481 29.3125 3.75975 28.8617 3.70971 28.4024C3.65967 27.8513 3.61797 27.3003 3.60128 26.7408C3.56792 25.9977 4.03497 25.3631 4.80226 25.0876C5.50283 24.8371 6.18672 25.0291 6.6621 25.6303C7.05409 26.1396 7.33765 26.7158 7.53782 27.3253C8.02154 28.8032 8.44689 30.2895 8.96397 31.759C9.84803 34.289 11.2158 36.51 13.2508 38.2885C13.501 38.5056 13.7762 38.6977 13.9514 38.9899C13.8429 39.04 13.7345 39.0149 13.6261 38.9815C12.4752 38.6058 11.3826 38.1215 10.3484 37.512Z" fill="#005000"/>
<path d="M34.1497 5.89134C34.3248 7.28575 34.4082 8.68016 34.3248 10.0829C34.2664 11.1183 34.0413 12.1119 33.4658 12.997C32.9487 13.8069 32.2064 13.9154 31.5392 13.2391C30.847 12.5377 30.4133 11.661 29.8879 10.8511C28.837 9.20619 27.8863 7.49449 26.702 5.93309C24.9172 3.57846 22.707 1.71647 20.155 0.23857C20.0382 0.171772 19.9214 0.0882745 19.8047 0.0131268C20.4636 -0.0286219 21.1141 0.038176 21.7646 0.0882745C21.9981 0.171772 22.215 0.297018 22.4235 0.438964C23.5077 1.16539 24.5919 1.90017 25.501 2.84369C26.5518 3.94585 27.5443 5.10647 28.445 6.34223C29.2874 7.51119 30.1047 8.7052 30.9888 9.84077C31.239 10.1581 31.5142 10.4503 31.8478 10.6841C32.4566 11.1099 32.882 10.993 33.2489 10.3501C33.5742 9.77397 33.6826 9.14774 33.716 8.51316C33.766 7.63644 33.741 6.76806 33.6159 5.89969C33.5909 5.74105 33.5242 5.57405 33.6743 5.43211C33.8327 5.5824 33.9912 5.74105 34.1497 5.89134Z" fill="#005000"/>
<path d="M33.6762 5.43221C33.793 6.42583 33.8847 7.41945 33.8347 8.41307C33.8013 9.1061 33.6845 9.79078 33.3509 10.417C32.9756 11.1267 32.4919 11.2603 31.8247 10.7927C31.1158 10.3001 30.6487 9.58203 30.1567 8.89735C28.7639 6.92681 27.3627 4.96463 25.7114 3.20283C24.7189 2.15076 23.5513 1.34919 22.3837 0.522565C22.1835 0.38062 21.9834 0.230324 21.7832 0.0883789C22.6673 0.138477 23.5513 0.221975 24.402 0.505866C25.5863 1.24899 26.5621 2.23426 27.4962 3.26128C28.4803 4.34675 29.4227 5.48231 30.4236 6.55108C30.8072 6.96021 31.2409 7.33595 31.6996 7.67829C32.1083 7.97888 32.4002 7.88703 32.6003 7.40275C32.8589 6.77652 32.8005 6.12524 32.8088 5.47396C32.8172 5.23182 32.7338 4.97298 32.9089 4.75588C33.2175 4.93123 33.476 5.14832 33.6762 5.43221Z" fill="#08FF0C"/>
<path d="M32.924 4.74748C32.9156 5.6075 33.0324 6.46752 32.7572 7.3025C32.507 8.04562 32.1567 8.16252 31.5479 7.67824C30.3135 6.70967 29.3377 5.5073 28.3202 4.33834C27.186 3.01908 25.9767 1.78332 24.6089 0.714554C24.5338 0.656106 24.4755 0.580958 24.4004 0.51416C25.176 0.656106 25.9266 0.881549 26.6772 1.14039C27.8866 2.04216 28.9457 3.10258 30.055 4.12125C30.3052 4.35504 30.5637 4.59718 30.864 4.76418C31.0975 4.89777 31.3644 4.98962 31.6062 4.82263C31.8314 4.66398 31.7313 4.39679 31.7147 4.17135C31.7063 4.05445 31.5896 3.93755 31.723 3.82901C32.1483 4.08785 32.5403 4.41349 32.924 4.74748Z" fill="#005000"/>
<path d="M31.7152 3.82045C31.7569 3.9624 31.8152 4.11269 31.8319 4.25464C31.8569 4.48843 31.9153 4.74727 31.6985 4.91427C31.465 5.08961 31.1981 5.02281 30.9479 4.93097C30.7227 4.84747 30.5392 4.69717 30.3641 4.53853C29.1798 3.42801 27.9871 2.3342 26.7611 1.27378C26.7194 1.24038 26.7028 1.18193 26.6777 1.13184C28.4959 1.77477 30.2056 2.60974 31.7152 3.82045Z" fill="#08FF0C"/>
<path d="M0.107246 21.0129C0.107246 21.3052 0.107246 21.5974 0.107246 21.8896C-0.00117525 21.6057 0.0321852 21.3052 0.0321852 21.0046C0.0655456 20.9712 0.0905659 20.9712 0.107246 21.0129Z" fill="#08FF0C"/>
<path d="M0.105456 18.1235C0.105456 18.3907 0.105456 18.6496 0.105456 18.9168C0.0887757 18.9585 0.0637554 18.9585 0.0387351 18.9251C0.030395 18.6579 -0.00296546 18.3824 0.105456 18.1235Z" fill="#08FF0C"/>
<path d="M0.115571 21.9897C0.265693 22.1901 0.173952 22.4156 0.198972 22.6327C0.0905507 22.4323 0.107231 22.2068 0.115571 21.9897Z" fill="#08FF0C"/>
<path d="M0.273897 16.8047C0.265557 16.9884 0.340618 17.1888 0.190496 17.3474C0.190496 17.1637 0.173815 16.98 0.273897 16.8047Z" fill="#08FF0C"/>
<path d="M0.106839 21.0122C0.0818182 21.0122 0.0567979 21.0039 0.0317776 21.0039C0.0317776 20.8371 0.0234375 20.6619 0.0234375 20.4951C0.173559 20.6452 0.0901584 20.8371 0.106839 21.0122Z" fill="#08FF0C"/>
<path d="M0.190496 22.6494C0.332277 22.8164 0.257217 23.0168 0.273897 23.2088C0.173815 23.0335 0.190496 22.8415 0.190496 22.6494Z" fill="#08FF0C"/>
<path d="M9.60477 2.90234C9.60477 2.9357 9.59643 2.9774 9.59643 3.01077C9.52137 3.10251 9.42963 3.07749 9.33789 3.06915C9.39627 2.9774 9.49635 2.92736 9.60477 2.90234Z" fill="#08FF0C"/>
<path d="M0.0395901 18.9253C0.0646104 18.9253 0.0896307 18.9253 0.106311 18.917C0.0979709 19.0588 0.156352 19.2172 0.03125 19.3423C0.03125 19.2089 0.03125 19.0671 0.0395901 18.9253Z" fill="#08FF0C"/>
<path d="M3.70909 31.4332C3.79249 31.4999 3.77581 31.5833 3.76747 31.675C3.66739 31.6167 3.62568 31.5166 3.58398 31.4165C3.62568 31.4248 3.66739 31.4332 3.70909 31.4332Z" fill="#08FF0C"/>
<path d="M4.05057 20.528C4.01721 20.4363 3.99219 20.3445 4.11729 20.2861C4.15065 20.3779 4.12563 20.4529 4.05057 20.528Z" fill="#08FF0C"/>
<path d="M55.425 17H48.975V6.74H55.32V8.375H51V11H55.08V12.635H51V15.365H55.425V17ZM62.3388 17H60.3288V8.375H57.5538V6.74H65.1138V8.375H62.3388V17ZM73.9236 17H67.4736V6.74H73.8186V8.375H69.4986V11H73.5786V12.635H69.4986V15.365H73.9236V17ZM82.2025 12.935L84.3925 17H82.1125L80.2525 13.25H78.8575V17H76.8475V6.74H80.5075C83.0075 6.74 84.2575 7.835 84.2575 10.025C84.2575 10.755 84.0675 11.375 83.6875 11.885C83.3175 12.395 82.8225 12.745 82.2025 12.935ZM78.8575 11.66H80.6275C81.1075 11.66 81.4925 11.51 81.7825 11.21C82.0725 10.9 82.2175 10.505 82.2175 10.025C82.2175 8.925 81.6475 8.375 80.5075 8.375H78.8575V11.66ZM89.2134 17H87.1884V6.74H89.0484L93.0984 13.19V6.74H95.1084V17H93.3534L89.2134 10.535V17ZM106.691 17H104.531L103.826 14.825H100.346L99.6408 17H97.4808L101.186 6.74H102.971L106.691 17ZM102.086 9.53L100.871 13.25H103.301L102.086 9.53ZM115.522 17H109.027V6.74H111.052V15.365H115.522V17ZM55.425 35H48.975V24.74H55.32V26.375H51V29H55.08V30.635H51V33.365H55.425V35ZM61.2888 35H58.3488V24.74H61.3788C62.8888 24.74 64.1188 25.2 65.0688 26.12C66.0188 27.04 66.4938 28.295 66.4938 29.885C66.4938 31.465 66.0188 32.715 65.0688 33.635C64.1288 34.545 62.8688 35 61.2888 35ZM60.3738 26.375V33.365H61.2888C62.2688 33.365 63.0388 33.06 63.5988 32.45C64.1688 31.84 64.4538 30.985 64.4538 29.885C64.4538 28.725 64.1838 27.85 63.6438 27.26C63.1038 26.67 62.3488 26.375 61.3788 26.375H60.3738ZM71.7368 35H69.7118V24.74H71.7368V35ZM79.3726 35H77.3626V26.375H74.5876V24.74H82.1476V26.375H79.3726V35ZM87.0274 35H85.0024V24.74H87.0274V35ZM90.2382 29.915C90.2382 28.215 90.6182 26.905 91.3782 25.985C92.1482 25.055 93.2732 24.59 94.7532 24.59C96.2132 24.59 97.3232 25.055 98.0832 25.985C98.8432 26.905 99.2232 28.215 99.2232 29.915C99.2232 31.535 98.8432 32.805 98.0832 33.725C97.3332 34.655 96.2232 35.12 94.7532 35.12C93.2832 35.12 92.1632 34.655 91.3932 33.725C90.6232 32.775 90.2382 31.505 90.2382 29.915ZM94.7532 33.455C96.3732 33.455 97.1832 32.275 97.1832 29.915C97.1832 28.675 96.9832 27.755 96.5832 27.155C96.1932 26.555 95.5832 26.255 94.7532 26.255C93.9032 26.255 93.2782 26.555 92.8782 27.155C92.4782 27.745 92.2782 28.665 92.2782 29.915C92.2782 32.275 93.1032 33.455 94.7532 33.455ZM103.977 35H101.952V24.74H103.812L107.862 31.19V24.74H109.872V35H108.117L103.977 28.535V35ZM116.714 35.12C115.574 35.12 114.624 34.845 113.864 34.295C113.114 33.745 112.739 32.89 112.739 31.73H114.659C114.699 32.38 114.879 32.84 115.199 33.11C115.519 33.38 116.034 33.515 116.744 33.515C117.274 33.515 117.694 33.385 118.004 33.125C118.314 32.865 118.469 32.535 118.469 32.135C118.469 31.765 118.309 31.475 117.989 31.265C117.669 31.045 117.124 30.83 116.354 30.62C115.594 30.4 114.964 30.165 114.464 29.915C113.504 29.405 112.999 28.6 112.949 27.5C112.949 26.62 113.294 25.915 113.984 25.385C114.684 24.855 115.584 24.59 116.684 24.59C117.684 24.59 118.539 24.855 119.249 25.385C119.959 25.915 120.314 26.685 120.314 27.695H118.409C118.409 26.665 117.834 26.15 116.684 26.15C116.134 26.15 115.709 26.265 115.409 26.495C115.109 26.715 114.959 27.045 114.959 27.485C114.959 27.825 115.124 28.105 115.454 28.325C115.784 28.535 116.339 28.75 117.119 28.97C117.929 29.2 118.554 29.43 118.994 29.66C119.484 29.91 119.849 30.215 120.089 30.575C120.339 30.925 120.479 31.39 120.509 31.97C120.509 32.92 120.169 33.685 119.489 34.265C118.809 34.835 117.884 35.12 116.714 35.12Z" fill="black"/>
</svg>
