<svg width="19" height="14" viewBox="0 0 19 14" fill="none" xmlns="http://www.w3.org/2000/svg">
<path d="M3.73478 1.40881C3.7398 1.39905 3.74813 1.39141 3.75829 1.38726C4.92525 0.851675 6.15674 0.469713 7.42196 0.250933C7.4334 0.248816 7.4452 0.250321 7.45574 0.255238C7.46628 0.260155 7.47501 0.268239 7.48074 0.278362C7.64855 0.582648 7.80091 0.89521 7.93723 1.21485C9.30085 1.00797 10.6879 1.00797 12.0515 1.21485C12.1886 0.894406 12.3433 0.581767 12.5149 0.278362C12.5208 0.268435 12.5296 0.260517 12.54 0.255627C12.5505 0.250737 12.5622 0.249101 12.5736 0.250933C13.839 0.469249 15.0705 0.851229 16.2373 1.38726C16.2474 1.39143 16.256 1.39861 16.2618 1.40783C18.3474 4.39211 19.2913 8.02647 18.9214 11.6485C18.9205 11.6567 18.918 11.6647 18.9139 11.6719C18.9099 11.6792 18.9044 11.6855 18.8979 11.6906C17.5394 12.6979 16.0197 13.4671 14.4035 13.9652C14.3922 13.9686 14.3801 13.9684 14.3689 13.9648C14.3577 13.9611 14.3479 13.9541 14.3408 13.9446C13.9936 13.4725 13.686 12.9725 13.421 12.4498C13.4173 12.4426 13.4152 12.4347 13.4148 12.4267C13.4144 12.4186 13.4158 12.4105 13.4187 12.403C13.4217 12.3955 13.4262 12.3887 13.432 12.3831C13.4378 12.3775 13.4447 12.3732 13.4523 12.3704C13.9372 12.1848 14.4066 11.9611 14.8561 11.7014C14.8647 11.6967 14.872 11.6899 14.8773 11.6816C14.8826 11.6733 14.8856 11.6638 14.8862 11.654C14.8868 11.6442 14.8849 11.6344 14.8807 11.6256C14.8764 11.6167 14.87 11.6091 14.862 11.6034C14.764 11.5329 14.6729 11.4594 14.5828 11.385C14.5748 11.3785 14.5652 11.3743 14.555 11.3729C14.5448 11.3715 14.5344 11.373 14.525 11.3771C13.1097 12.0412 11.5655 12.3854 10.0022 12.3854C8.43888 12.3854 6.89473 12.0412 5.47943 11.3771C5.46998 11.3727 5.45945 11.3709 5.44906 11.3721C5.43867 11.3734 5.42882 11.3775 5.42065 11.384C5.33053 11.4584 5.23649 11.5329 5.14147 11.6034C5.13341 11.609 5.12692 11.6166 5.12259 11.6254C5.11827 11.6342 5.11625 11.644 5.11674 11.6538C5.11723 11.6636 5.12021 11.6731 5.12539 11.6814C5.13058 11.6897 5.13779 11.6966 5.14637 11.7014C5.59497 11.9632 6.06489 12.1867 6.55111 12.3695C6.55865 12.3724 6.56549 12.3769 6.57118 12.3827C6.57687 12.3884 6.5813 12.3953 6.58416 12.4029C6.58702 12.4104 6.58827 12.4185 6.5878 12.4266C6.58734 12.4347 6.58518 12.4426 6.58147 12.4498C6.31213 12.9695 6.00502 13.4688 5.66261 13.9437C5.65574 13.9534 5.64599 13.9607 5.63474 13.9645C5.62349 13.9684 5.61131 13.9686 5.59992 13.9652C3.97956 13.4704 2.4556 12.7025 1.0938 11.6945C1.08719 11.6897 1.08168 11.6836 1.07763 11.6765C1.07358 11.6694 1.07108 11.6615 1.07029 11.6534C0.691353 8.02875 1.63788 4.38951 3.73478 1.40881ZM12.9811 9.60506C13.4248 9.55237 13.8337 9.33879 14.1304 9.00479C14.427 8.67078 14.5909 8.23956 14.5909 7.79281C14.5909 7.34607 14.427 6.91484 14.1304 6.58083C13.8337 6.24683 13.4248 6.03325 12.9811 5.98057C12.5375 6.03325 12.1286 6.24683 11.8319 6.58083C11.5353 6.91484 11.3714 7.34607 11.3714 7.79281C11.3714 8.23956 11.5353 8.67078 11.8319 9.00479C12.1286 9.33879 12.5375 9.55237 12.9811 9.60506ZM6.99976 9.60506C7.44339 9.55237 7.85228 9.33879 8.14897 9.00479C8.44565 8.67078 8.60952 8.23956 8.60952 7.79281C8.60952 7.34607 8.44565 6.91484 8.14897 6.58083C7.85228 6.24683 7.44339 6.03325 6.99976 5.98057C6.55613 6.03325 6.14723 6.24683 5.85055 6.58083C5.55386 6.91484 5.39 7.34607 5.39 7.79281C5.39 8.23956 5.55386 8.67078 5.85055 9.00479C6.14723 9.33879 6.55613 9.55237 6.99976 9.60506Z" fill="black"/>
</svg>
