<svg width="19" height="16" viewBox="0 0 19 16" fill="none" xmlns="http://www.w3.org/2000/svg">
<path d="M2.10022 4.14521C2.08874 4.30497 2.08874 4.46472 2.08874 4.62448C2.07902 6.00564 2.34389 7.37498 2.86796 8.65289C3.39203 9.93081 4.16485 11.0918 5.14151 12.0685C6.11817 13.0451 7.27919 13.818 8.5571 14.342C9.83502 14.8661 11.2043 15.131 12.5855 15.1213C14.5935 15.1273 16.5604 14.5534 18.25 13.4684C17.9543 13.501 17.6569 13.5164 17.3593 13.5143C15.6991 13.5186 14.0859 12.9635 12.7797 11.9387C13.5489 11.924 14.2943 11.6697 14.912 11.2111C15.5297 10.7525 15.9888 10.1126 16.2254 9.38055C15.995 9.41713 15.7622 9.43632 15.529 9.43798C15.2013 9.43715 14.875 9.39506 14.5579 9.31269C15.3946 9.14411 16.147 8.6907 16.6869 8.02969C17.2268 7.36867 17.5209 6.54092 17.5191 5.68742V5.6373C17.0069 5.92289 16.4345 6.08318 15.8485 6.10508C16.6314 5.58401 17.1862 4.78393 17.3996 3.86797C17.613 2.95201 17.469 1.98914 16.997 1.17567C16.0707 2.31673 14.9148 3.25031 13.6044 3.91586C12.294 4.58141 10.8583 4.96407 9.39044 5.039C9.44979 4.7613 9.48058 4.47826 9.48232 4.19429C9.48276 3.45343 9.26031 2.72956 8.84387 2.11681C8.42744 1.50406 7.8363 1.03076 7.1473 0.758452C6.45829 0.48614 5.7033 0.427405 4.98048 0.589892C4.25765 0.752378 3.60043 1.12857 3.09425 1.66955C2.26823 1.51047 1.47614 1.2091 0.753277 0.778894C1.02983 1.63122 1.60789 2.35334 2.37901 2.80975C1.64622 2.72638 0.930012 2.53387 0.254175 2.23861C0.758137 2.97326 1.38221 3.61781 2.10022 4.14521Z" fill="black"/>
</svg>
