<svg width="19" height="14" viewBox="0 0 19 14" fill="none" xmlns="http://www.w3.org/2000/svg">
<path d="M10.6463 11.0851C10.365 11.0851 10.1119 11.3101 10.1119 11.6195C10.1119 11.9007 10.3369 12.1539 10.6463 12.1539C10.9275 12.1539 11.1807 11.9289 11.1807 11.6195C11.1807 11.3101 10.9275 11.0851 10.6463 11.0851ZM2.37755 7.82261C2.6588 7.82261 2.91192 7.59761 2.91192 7.28824C2.91192 7.00699 2.68692 6.75386 2.37755 6.75386C2.0963 6.75386 1.84317 6.97886 1.84317 7.28824C1.84317 7.56949 2.0963 7.82261 2.37755 7.82261ZM2.37755 5.65699C3.27755 5.65699 4.0088 6.38824 4.0088 7.28824C4.0088 7.45699 3.98067 7.62574 3.92442 7.79449L9.2963 10.6632C9.60567 10.2132 10.1119 9.96011 10.6463 9.96011C11.265 9.96011 11.8275 10.3257 12.1088 10.8601L16.9463 8.32886C17.4525 8.04761 17.8463 7.23199 17.79 6.44449C17.7619 6.05074 17.6213 5.74136 17.4244 5.62886C17.2838 5.54449 17.1432 5.57261 16.9463 5.65699L16.9182 5.68511C15.6244 6.36011 11.4338 8.55386 11.265 8.63824C10.9838 8.75074 10.8432 8.80699 10.365 8.58199L1.70255 4.08199C1.56192 4.02574 1.4213 3.91324 1.4213 3.71636C1.4213 3.46324 1.67442 3.35074 1.67442 3.35074C2.18067 3.12574 2.94005 2.76011 3.6713 2.42261C5.2463 1.69136 7.0463 0.847613 7.8338 0.425738C8.5088 0.0601126 9.0713 0.369488 9.15567 0.425738L9.35255 0.510113C12.9244 2.31011 17.6494 4.64449 17.9307 4.81324C18.4088 5.09449 18.7182 5.68511 18.7463 6.41636C18.8025 7.56949 18.2119 8.77886 17.3682 9.20074L12.2494 11.8445C12.1369 12.632 11.4338 13.2507 10.6463 13.2507C9.7463 13.2507 9.04317 12.5476 9.01505 11.6476L3.39005 8.61011C3.1088 8.83511 2.74317 8.94761 2.37755 8.94761C1.47755 8.94761 0.746298 8.21636 0.746298 7.31636C0.746298 6.38824 1.47755 5.65699 2.37755 5.65699Z" fill="black"/>
</svg>
