<svg width="20" height="19" viewBox="0 0 20 19" fill="none" xmlns="http://www.w3.org/2000/svg">
<path d="M9.99687 4.3865C12.5522 4.3865 14.6134 6.44766 14.6134 9.00301C14.6134 11.5584 12.5522 13.6195 9.99687 13.6195C7.44152 13.6195 5.38036 11.5584 5.38036 9.00301C5.38036 6.44766 7.44152 4.3865 9.99687 4.3865ZM9.99687 12.0044C11.6482 12.0044 12.9982 10.6584 12.9982 9.00301C12.9982 7.34766 11.6522 6.00167 9.99687 6.00167C8.34152 6.00167 6.99554 7.34766 6.99554 9.00301C6.99554 10.6584 8.34554 12.0044 9.99687 12.0044ZM4.11473 4.19766C4.11473 4.79632 4.59687 5.27444 5.19152 5.27444C5.79018 5.27444 6.2683 4.7923 6.2683 4.19766C6.2683 3.60301 5.78616 3.12087 5.19152 3.12087C4.59687 3.12087 4.11473 3.60301 4.11473 4.19766ZM1.05714 5.29051C1.12545 3.8481 1.45491 2.57042 2.51161 1.51775C3.56429 0.465067 4.84196 0.135603 6.28437 0.0632813C7.77098 -0.0210938 12.2268 -0.0210938 13.7134 0.0632813C15.1518 0.131585 16.4295 0.461049 17.4862 1.51373C18.5429 2.56641 18.8683 3.84408 18.9406 5.2865C19.025 6.7731 19.025 11.2289 18.9406 12.7155C18.8723 14.1579 18.5429 15.4356 17.4862 16.4883C16.4295 17.541 15.1558 17.8704 13.7134 17.9427C12.2268 18.0271 7.77098 18.0271 6.28437 17.9427C4.84196 17.8744 3.56429 17.545 2.51161 16.4883C1.45893 15.4356 1.12946 14.1579 1.05714 12.7155C0.972767 11.2289 0.972767 6.77712 1.05714 5.29051ZM2.97768 14.3106C3.29107 15.0981 3.89777 15.7048 4.68929 16.0222C5.87455 16.4923 8.68705 16.3838 9.99687 16.3838C11.3067 16.3838 14.1232 16.4883 15.3045 16.0222C16.092 15.7088 16.6987 15.1021 17.0161 14.3106C17.4862 13.1253 17.3777 10.3128 17.3777 9.00301C17.3777 7.69319 17.4821 4.87667 17.0161 3.69542C16.7027 2.90792 16.096 2.30123 15.3045 1.98382C14.1192 1.51373 11.3067 1.62221 9.99687 1.62221C8.68705 1.62221 5.87053 1.51775 4.68929 1.98382C3.90178 2.29721 3.29509 2.90391 2.97768 3.69542C2.50759 4.88069 2.61607 7.69319 2.61607 9.00301C2.61607 10.3128 2.50759 13.1294 2.97768 14.3106Z" fill="black"/>
</svg>
